Coordinates
version=1
nRows=11
nColumns=63
inDegrees=yes

Units are S.I. units (second, meters, Newtons, ...)
If the header above contains a line with 'inDegrees', this indicates whether rotational values are in degrees (yes) or radians (no).

endheader
time	pelvis_tilt	pelvis_list	pelvis_rotation	pelvis_tx	pelvis_ty	pelvis_tz	hip_flexion_r	hip_adduction_r	hip_rotation_r	knee_angle_r	knee_angle_r_beta	ankle_angle_r	subtalar_angle_r	mtp_angle_r	hip_flexion_l	hip_adduction_l	hip_rotation_l	knee_angle_l	knee_angle_l_beta	ankle_angle_l	subtalar_angle_l	mtp_angle_l	L5_S1_Flex_Ext	L5_S1_Lat_Bending	L5_S1_axial_rotation	L4_L5_Flex_Ext	L4_L5_Lat_Bending	L4_L5_axial_rotation	L3_L4_Flex_Ext	L3_L4_Lat_Bending	L3_L4_axial_rotation	L2_L3_Flex_Ext	L2_L3_Lat_Bending	L2_L3_axial_rotation	L1_L2_Flex_Ext	L1_L2_Lat_Bending	L1_L2_axial_rotation	L1_T12_Flex_Ext	L1_T12_Lat_Bending	L1_T12_axial_rotation	Abs_r3	Abs_r2	Abs_r1	Abs_t1	Abs_t2	neck_flexion	neck_bending	neck_rotation	arm_flex_r	arm_add_r	arm_rot_r	elbow_flex_r	pro_sup_r	wrist_flex_r	wrist_dev_r	arm_flex_l	arm_add_l	arm_rot_l	elbow_flex_l	pro_sup_l	wrist_flex_l	wrist_dev_l
      0.00000000	      4.27436403	     -4.00953171	    101.01944465	      0.00665074	      0.98716333	      0.70026120	      3.09991809	      2.09229820	      4.55905278	      5.30677130	      0.09262063	     26.68420788	    -12.44392998	      0.00000000	      5.12034651	     -0.65372204	     11.68808464	      5.55402179	      0.09693597	     30.68379780	     -3.03896554	      0.00000000	      0.11779086	      0.28205190	     -1.37731263	      0.21874940	      0.37512902	     -1.46339467	      0.19351860	      0.68578098	     -1.46339467	      0.13462317	      0.68578098	     -1.20514856	      0.10938059	      0.57516023	     -1.11906652	      0.06730570	      0.43689839	     -1.03298448	      0.84136832	      3.19062747	     -7.66019968	      0.00000000	      0.00000000	     26.64253299	      7.01432074	     17.80399202	     16.23058496	     -3.85077482	     68.13311429	     29.17824573	     11.27224860	      0.88415832	      3.09869134	     14.51360730	     -4.28085288	     55.64704500	     34.71939626	     70.53450233	      2.70601366	     -2.46903958
      0.01694915	      4.38672391	     -3.98693876	    101.59761786	      0.00528184	      0.98736102	      0.69884514	      3.38108413	      2.14883495	      4.90747318	      6.33340489	      0.11053877	     26.81984644	    -12.97972281	      0.00000000	      5.17470120	     -0.68525642	     11.82610096	      5.72918275	      0.09999310	     30.55943377	     -2.94777508	      0.00000000	      0.13942732	      0.29102725	     -1.38970416	      0.25893048	      0.38706624	     -1.47656067	      0.22906515	      0.70760366	     -1.47656067	      0.15935149	      0.70760366	     -1.21599114	      0.12947221	      0.59346277	     -1.12913463	      0.07966877	      0.45080121	     -1.04227812	      0.99591542	      3.29215846	     -7.72911761	      0.00000000	      0.00000000	     26.71127360	      6.83147157	     17.09754998	     16.12588782	     -3.66686358	     71.44912391	     27.92583842	     16.11672350	      2.33578209	      0.46891831	     14.43003473	     -3.94278889	     58.28445500	     32.45951525	     70.17353249	      3.26267147	     -5.23361761
      0.03389831	      4.53779829	     -3.85327299	    102.14701977	      0.00404803	      0.98758645	      0.69761414	      3.49227844	      2.28784715	      5.18041993	      7.11424175	      0.12416694	     26.95085926	    -13.60573629	      0.00000000	      5.06214672	     -0.80058389	     11.83173970	      5.76067328	      0.10054272	     30.58752573	     -2.68415626	      0.00000000	      0.14425730	      0.30987816	     -1.33554527	      0.26790024	      0.41213795	     -1.41901685	      0.23700033	      0.75343776	     -1.41901685	      0.16487167	      0.75343776	     -1.16860211	      0.13395733	      0.63190355	     -1.08513054	      0.08242862	      0.48000127	     -1.00165896	      1.03041550	      3.50540374	     -7.42790215	      0.00000000	      0.00000000	     26.75051964	      6.47005463	     16.41697631	     15.31727797	     -3.67821331	     71.00512035	     27.19814087	     22.73484569	      2.78703623	     -0.81791752	     15.45134600	     -3.80535164	     65.63296538	     30.81838043	     64.01964842	      2.33523715	     -7.93457751
      0.05084746	      4.74910011	     -3.78973564	    102.65086057	      0.00278787	      0.98762982	      0.69684034	      3.78203965	      2.44141473	      5.03533160	      7.97065413	      0.13911416	     27.26081500	    -13.72796618	      0.00000000	      4.99930636	     -0.96784380	     12.05578974	      5.65977156	      0.09878165	     30.57243284	     -2.56629779	      0.00000000	      0.15368597	      0.33995327	     -1.35570805	      0.28541021	      0.45213784	     -1.44043981	      0.25249067	      0.82656237	     -1.44043981	      0.17564769	      0.82656237	     -1.18624455	      0.14271279	      0.69323270	     -1.10151279	      0.08781616	      0.52658761	     -1.01678104	      1.09776349	      3.84561933	     -7.54004148	      0.00000000	      0.00000000	     26.74049844	      6.31124457	     16.30143364	     14.99293104	     -3.81905358	     72.31131569	     26.95720735	     23.87787172	      2.62246636	     -0.93953798	     15.34608783	     -3.52002970	     66.82496031	     30.21230497	     64.77658896	      2.45038767	     -8.19002506
      0.06779661	      4.93960169	     -3.71303992	    103.12026197	      0.00154238	      0.98765634	      0.69641530	      3.89923772	      2.52863427	      4.13691562	      8.39202300	      0.14646843	     27.69954606	    -12.84883360	      0.00000000	      5.01561555	     -1.07226193	     12.37919189	      5.73007252	      0.10000863	     30.61564556	     -2.87050895	      0.00000000	      0.15555617	      0.37129629	     -1.37402226	      0.28888337	      0.49382407	     -1.45989866	      0.25556323	      0.90276980	     -1.45989866	      0.17778515	      0.90276980	     -1.20226948	      0.14444946	      0.75714740	     -1.11639309	      0.08888480	      0.57513796	     -1.03051670	      1.11112218	      4.20017791	     -7.64189962	      0.00000000	      0.00000000	     26.84650360	      5.95202067	     16.17901180	     14.94239427	     -4.08348920	     74.46874646	     26.64080805	     25.84337426	      2.37415797	     -2.14153869	     15.58831502	     -3.30070925	     68.84779833	     29.78504158	     66.68452947	      1.72066891	     -9.74207989
      0.08474576	      4.97944957	     -3.64073092	    103.37545693	      0.00071831	      0.98780537	      0.69602036	      3.87426020	      2.51181469	      4.11960621	      8.52755400	      0.14883389	     27.76172287	    -12.84288783	      0.00000000	      4.94526635	     -1.06286462	     12.33988168	      5.71288075	      0.09970858	     30.63270706	     -2.91359733	      0.00000000	      0.15093599	      0.38294671	     -1.36604458	      0.28030322	      0.50931913	     -1.45142236	      0.24797274	      0.93109664	     -1.45142236	      0.17250474	      0.93109664	     -1.19528900	      0.14015916	      0.78090494	     -1.10991122	      0.08624482	      0.59318446	     -1.02453343	      1.07812067	      4.33196982	     -7.59753012	      0.00000000	      0.00000000	     26.89575702	      5.95016377	     16.18847165	     14.56771073	     -4.24573672	     74.61891515	     26.55656180	     25.86119818	      2.35271401	     -2.04303412	     15.46210274	     -3.15491871	     68.97003367	     29.95153137	     66.76361845	      1.76208536	     -9.73032942
      0.10169492	      5.27654757	     -3.63932815	    103.94324036	     -0.00060164	      0.98755834	      0.69644232	      4.42402598	      2.47627939	      0.46107777	      9.54553244	      0.16660097	     29.35702770	     -8.53279935	      0.00000000	      4.91911461	     -1.21841134	     14.54050704	      5.35661353	      0.09349054	     30.14952465	     -5.25147085	      0.00000000	      0.15781367	      0.43064149	     -1.47594980	      0.29307577	      0.57275318	     -1.56819666	      0.25927208	      1.04706171	     -1.56819666	      0.18036524	      1.04706171	     -1.29145607	      0.14654577	      0.87816412	     -1.19920921	      0.09017473	      0.66706366	     -1.10696235	      1.12724727	      4.87150261	     -8.20878998	      0.00000000	      0.00000000	     26.92639749	      5.58676145	     16.65547717	     15.05626876	     -4.76388346	     77.49023271	     27.01759896	     22.23069011	      2.29064147	     -1.60967812	     15.20761288	     -3.00450559	     67.10577662	     30.59693001	     71.61096984	      1.54251473	     -8.62889280
      0.11864407	      5.34082132	     -3.61826629	    104.33700861	     -0.00126622	      0.98756853	      0.69662470	      4.58287190	      2.39644910	     -0.85105587	      9.92800534	      0.17327638	     29.87684075	     -7.19948533	      0.00000000	      4.84239558	     -1.21576030	     15.57461025	      5.09589577	      0.08894016	     29.89037367	     -6.32476439	      0.00000000	      0.15689882	      0.44172004	     -1.54627953	      0.29137680	      0.58748765	     -1.64292200	      0.25776907	      1.07399811	     -1.64292200	      0.17931966	      1.07399811	     -1.35299459	      0.14569624	      0.90075551	     -1.25635212	      0.08965199	      0.68422434	     -1.15970965	      1.12071258	      4.99682544	     -8.59994288	      0.00000000	      0.00000000	     26.92300210	      5.51089169	     16.78962037	     15.15411020	     -5.05765522	     77.89724631	     27.43576407	     19.88617945	      2.37932893	     -1.05823344	     14.95908854	     -2.98577995	     65.75823172	     31.31452271	     70.98325047	      1.93477903	     -7.33584257
      0.13559322	      5.34286295	     -3.65028417	    104.77725828	     -0.00156965	      0.98760585	      0.69697152	      4.67509480	      2.33541114	     -1.37647133	     10.09044915	      0.17611156	     29.96843795	     -7.01012572	      0.00000000	      4.86237596	     -1.18436170	     16.01065733	      4.90109338	      0.08554022	     29.77828526	     -6.45155036	      0.00000000	      0.16041299	      0.43777470	     -1.63139335	      0.29790296	      0.58224035	     -1.73335543	      0.26354250	      1.06440539	     -1.73335543	      0.18333600	      1.06440539	     -1.42746918	      0.14895950	      0.89271016	     -1.32550709	      0.09165998	      0.67811300	     -1.22354501	      1.14581393	      4.95219491	     -9.07332038	      0.00000000	      0.00000000	     26.95207016	      5.48452610	     16.79825019	     15.16134076	     -5.22078686	     77.05923707	     27.83285832	     18.84661517	      2.49251686	     -0.31495338	     14.61986392	     -3.07592354	     63.88468150	     32.18394751	     68.83270042	      2.54631110	     -5.49432930
      0.15254237	      5.29533742	     -3.66258905	    105.16890191	     -0.00187442	      0.98766293	      0.69727996	      4.75967255	      2.21883548	     -2.08226098	     10.33879246	      0.18044597	     30.19009827	     -6.59193815	      0.00000000	      4.78036114	     -1.10881563	     16.59174960	      4.57836622	      0.07990756	     29.62674802	     -6.79346617	      0.00000000	      0.16086957	      0.42679365	     -1.71562400	      0.29875088	      0.56763555	     -1.82285050	      0.26429262	      1.03770607	     -1.82285050	      0.18385783	      1.03770607	     -1.50117100	      0.14938348	      0.87031760	     -1.39394450	      0.09192087	      0.66110336	     -1.28671800	      1.14907526	      4.82797507	     -9.54178599	      0.00000000	      0.00000000	     26.96538908	      5.61140920	     16.77902834	     15.28743265	     -5.34268925	     76.42582513	     28.18095447	     17.96191244	      2.56602991	      0.11618669	     14.41407695	     -3.12378526	     62.31778953	     32.81042680	     66.15459857	      3.15875991	     -3.78070556
      0.16949153	      5.24368358	     -3.71443351	    105.54681115	     -0.00194997	      0.98775961	      0.69773022	      4.80066745	      2.11128240	     -2.67279585	     10.39672421	      0.18145707	     30.23415886	     -6.19689892	      0.00000000	      4.76220439	     -1.03994366	     17.07875318	      4.28870723	      0.07485206	     29.35601639	     -6.96839940	      0.00000000	      0.16407007	      0.40959161	     -1.79774580	      0.30469453	      0.54475685	     -1.91010491	      0.26955072	      0.99588105	     -1.91010491	      0.18751569	      0.99588105	     -1.57302757	      0.15235547	      0.83523922	     -1.46066846	      0.09374964	      0.63445741	     -1.34830935	      1.17193612	      4.63338225	     -9.99852281	      0.00000000	      0.00000000	     26.96859664	      5.77105135	     16.67310012	     15.44042920	     -5.31411492	     75.76522273	     28.33866960	     17.47080959	      2.66889893	      0.23100497	     14.32566621	     -3.21648557	     61.09016636	     33.29234877	     63.88811720	      3.39681131	     -2.59392063
